<svg width="476" height="49" viewBox="0 0 476 49" fill="none" xmlns="http://www.w3.org/2000/svg">
<mask id="mask0" mask-type="alpha" maskUnits="userSpaceOnUse" x="141" y="3" width="27" height="36">
<path fill-rule="evenodd" clip-rule="evenodd" d="M141 3.38788H167.768V38.3839H141V3.38788Z" fill="white"/>
</mask>
<g mask="url(#mask0)">
<path fill-rule="evenodd" clip-rule="evenodd" d="M148.239 19.5839H155.218C157.144 19.5839 158.498 19.1669 159.331 18.3339C160.217 17.6049 160.634 16.3029 160.634 14.4799C160.634 12.9179 160.217 11.6679 159.436 10.7299C158.447 9.89688 157.196 9.48088 155.634 9.48088H148.239V19.5839ZM148.239 25.8849V38.3839H141V7.03288C141 6.04288 141.364 5.15788 142.094 4.48088C142.771 3.75188 143.656 3.38788 144.645 3.38788H156.572C160.269 3.38788 163.081 4.32488 164.904 6.25188C166.831 8.12588 167.768 10.9389 167.768 14.6879C167.768 18.1769 166.831 20.9899 165.008 23.0209C163.185 24.9479 160.529 25.8849 157.092 25.8849H148.239Z" fill="#1C394D"/>
</g>
<path fill-rule="evenodd" clip-rule="evenodd" d="M184.839 37.29C183.433 38.019 181.923 38.487 180.308 38.644C178.694 38.801 177.288 38.904 176.09 38.904C173.643 38.904 171.507 38.227 169.685 36.926C167.862 35.624 166.924 33.436 166.924 30.363C166.924 27.499 167.758 25.468 169.424 24.27C171.09 23.02 173.226 22.187 175.777 21.823C176.142 21.823 176.559 21.771 177.027 21.667C177.496 21.562 178.017 21.458 178.642 21.406C181.61 20.99 183.121 20.104 183.121 18.75C183.121 17.761 182.6 17.084 181.558 16.771C180.464 16.459 179.527 16.303 178.642 16.303C177.705 16.303 176.871 16.459 176.09 16.719C175.361 16.98 174.84 17.5 174.476 18.229H167.653C167.914 16.146 168.903 14.428 170.518 13.074C172.34 11.512 174.944 10.73 178.33 10.73C182.131 10.73 184.943 11.355 186.87 12.657C188.849 14.011 189.839 15.886 189.839 18.334V27.603C189.839 30.311 189.318 32.446 188.328 33.957C187.339 35.468 186.193 36.613 184.839 37.29ZM183.225 24.739C182.235 25.208 180.934 25.677 179.267 26.094L176.923 26.562C175.726 26.927 174.84 27.343 174.268 27.916C173.798 28.645 173.539 29.374 173.539 30.155C173.539 31.144 173.851 31.978 174.476 32.603C175.048 33.124 175.934 33.384 177.131 33.384C179.006 33.384 180.517 32.863 181.61 31.769C182.704 30.676 183.225 29.218 183.225 27.291V24.739Z" fill="#1C394D"/>
<path fill-rule="evenodd" clip-rule="evenodd" d="M193.171 47.9658V42.3418H195.098C196.452 42.3418 197.546 42.0288 198.327 41.4038C199.108 40.7268 199.264 39.6858 198.796 38.2788L189.317 11.3028H197.129L202.649 30.4678L207.441 13.7508C207.805 12.1368 208.899 11.3028 210.669 11.3028H215.565L205.201 42.1338C204.368 44.3728 203.326 45.9868 202.129 46.9248C200.931 47.7578 198.9 48.1738 196.14 48.1738H195.41H194.733C194.525 48.1218 194.265 48.0698 193.952 48.0178C193.64 47.9658 193.379 47.9658 193.171 47.9658Z" fill="#1C394D"/>
<path fill-rule="evenodd" clip-rule="evenodd" d="M239.055 38.3837H232.024V22.4997V21.0937C232.024 19.4797 231.556 18.2817 230.566 17.5527C229.577 16.7717 228.483 16.4067 227.285 16.4067C226.035 16.4067 224.942 16.7717 224.005 17.5527C223.067 18.2817 222.598 19.4797 222.598 21.0937V38.3837H215.464V22.4997C215.464 17.8647 216.662 14.7927 219.057 13.2817C221.505 11.7197 224.161 10.8867 227.077 10.7307C228.639 10.7307 230.15 10.8867 231.66 11.2517C233.17 11.5637 234.524 12.2407 235.722 13.2817C236.712 12.3967 237.909 11.7197 239.315 11.3557C240.722 10.9907 242.128 10.7817 243.638 10.7307C246.606 10.7307 249.366 11.5117 251.866 13.0737C254.366 14.6357 255.616 17.7607 255.616 22.4997V38.3837H252.075C251.085 38.3837 250.252 38.0717 249.575 37.3947C248.95 36.7697 248.637 35.9357 248.637 34.9457V21.0937C248.637 19.4797 248.117 18.2817 247.127 17.5527C246.138 16.7717 245.044 16.4067 243.846 16.4067C242.648 16.4067 241.503 16.7717 240.513 17.5527C239.524 18.2817 239.055 19.4797 239.055 21.0937V22.4997V38.3837Z" fill="#1C394D"/>
<path fill-rule="evenodd" clip-rule="evenodd" d="M264.984 18.0214C263.578 19.5834 262.901 21.9274 263.057 24.9994C263.213 28.0724 263.786 30.2594 264.776 31.4584C265.192 32.0304 265.921 32.4994 266.911 32.8634C267.952 33.2284 268.994 33.2284 270.035 32.9674C271.077 32.6554 272.014 31.8744 272.848 30.6754C273.629 29.4264 274.097 27.4474 274.15 24.7394C274.15 22.2914 273.785 20.4684 273.004 19.2714C272.223 18.0734 271.285 17.2924 270.296 16.9274C269.254 16.5634 268.213 16.5634 267.223 16.8754C266.234 17.1884 265.453 17.5524 264.984 18.0214ZM260.088 35.9354C258.683 34.7384 257.641 33.0724 257.068 30.9884C256.443 28.9584 256.13 26.7704 256.13 24.5314C256.13 22.7084 256.391 20.8854 256.912 19.0634C257.433 17.2404 258.214 15.6774 259.307 14.4794C261.078 12.4484 263.369 11.2514 266.13 10.8864C268.89 10.5224 271.389 10.7304 273.629 11.5114C276.181 12.5534 278.107 14.3234 279.358 16.8234C280.503 19.0634 281.076 21.6674 281.076 24.6354C281.076 26.8224 280.816 28.6974 280.347 30.2594C279.878 31.8224 279.253 33.1244 278.524 34.2174C276.91 36.4574 274.826 37.8104 272.327 38.3834C270.088 39.0084 267.796 39.0604 265.557 38.5404C263.317 38.0194 261.495 37.1334 260.088 35.9354Z" fill="#1C394D"/>
<path fill-rule="evenodd" clip-rule="evenodd" d="M305.476 38.9042H301.935C300.893 38.9042 300.06 38.5922 299.435 37.9152C298.758 37.2902 298.446 36.4572 298.446 35.4672V21.6142C298.446 20.0002 297.977 18.8022 296.988 18.0732C295.998 17.2922 294.905 16.9272 293.707 16.9272C292.457 16.9272 291.363 17.2922 290.426 18.0732C289.489 18.8022 289.019 20.0002 289.019 21.6142V38.9042H281.885V23.0202C281.885 18.3852 283.083 15.3132 285.478 13.8032C287.926 12.2402 290.582 11.4072 293.498 11.2512C296.467 11.2512 299.227 12.0322 301.727 13.5942C304.226 15.1572 305.476 18.2812 305.476 23.0202V38.9042Z" fill="#1C394D"/>
<path fill-rule="evenodd" clip-rule="evenodd" d="M317.239 38.3837C315 38.5397 312.604 38.4877 310.001 38.2797C307.397 38.0717 306.095 36.4047 306.095 33.2797V3.3877H309.74C310.626 3.3877 311.407 3.7527 312.084 4.4287C312.76 5.1057 313.073 5.8867 313.073 6.8767V11.4067H317.239V12.8657C317.239 13.8557 316.927 14.6887 316.25 15.3657C315.573 15.9897 314.74 16.3027 313.802 16.3027H313.073V31.3537C313.073 32.4987 313.751 33.0717 315.104 33.0717H317.239V38.3837Z" fill="#1C394D"/>
<path fill-rule="evenodd" clip-rule="evenodd" d="M335.079 18.9584C334.089 17.5524 332.683 16.8234 330.913 16.8234C328.985 16.8234 327.527 17.5004 326.538 18.8544C325.549 20.2084 325.027 22.0834 325.027 24.4274V38.3834H318.101V3.38739H321.538C322.528 3.38739 323.309 3.75239 323.986 4.42939C324.663 5.10539 325.027 5.88739 325.027 6.87639V14.8964C326.225 12.8654 327.944 11.5634 330.183 11.0424C332.423 10.4704 334.558 10.6264 336.589 11.4074C338.516 12.2404 340.078 13.5424 341.38 15.3134C342.683 17.0314 343.308 19.4794 343.308 22.6044V38.3834H336.537V24.3224C336.537 23.3334 336.433 22.3964 336.276 21.5624C336.12 20.6774 335.704 19.8434 335.079 18.9584Z" fill="#1C394D"/>
<path fill-rule="evenodd" clip-rule="evenodd" d="M344.039 3.90863H347.685C348.674 3.90863 349.455 4.22063 350.132 4.89763C350.809 5.52263 351.174 6.30363 351.174 7.29363V38.9046H344.039V3.90863Z" fill="#1C394D"/>
<path fill-rule="evenodd" clip-rule="evenodd" d="M355.932 47.9658V42.3418H357.86C359.213 42.3418 360.307 42.0288 361.088 41.4038C361.869 40.7268 362.026 39.6858 361.557 38.2788L352.078 11.3028H359.891L365.411 30.4678L370.202 13.7508C370.567 12.1368 371.66 11.3028 373.43 11.3028H378.326L367.962 42.1338C367.129 44.3728 366.087 45.9868 364.89 46.9248C363.692 47.7578 361.661 48.1738 358.901 48.1738H358.172H357.494C357.286 48.1218 357.026 48.0698 356.713 48.0178C356.402 47.9658 356.141 47.9658 355.932 47.9658Z" fill="#1C394D"/>
<mask id="mask1" mask-type="alpha" maskUnits="userSpaceOnUse" x="379" y="1" width="97" height="42">
<path fill-rule="evenodd" clip-rule="evenodd" d="M379.037 1.00018H475.257V42.403H379.037V1.00018Z" fill="white"/>
</mask>
<g mask="url(#mask1)">
<path fill-rule="evenodd" clip-rule="evenodd" d="M447.622 26.332V26.636C447.622 29.622 448.602 31.895 450.572 33.449C452.474 35.012 455.355 35.793 459.218 35.793C463.288 35.793 466.335 35.047 468.366 33.554C470.536 31.931 471.621 29.622 471.621 26.636C471.621 24.596 470.978 22.973 469.693 21.749C468.331 20.595 465.927 19.58 462.473 18.703C462.203 18.703 461.908 18.668 461.604 18.599C461.301 18.529 460.945 18.425 460.537 18.295C457.013 17.548 455.251 16.637 455.251 15.552C455.251 14.736 455.555 14.129 456.162 13.721C456.84 13.313 457.854 13.104 459.218 13.104C460.641 13.104 461.761 13.408 462.568 14.024C462.837 14.294 463.115 14.571 463.384 14.84C464.06 15.995 465.042 16.568 466.335 16.568H470.709C470.57 13.851 469.52 11.646 467.559 9.954C465.449 8.392 462.638 7.61 459.113 7.61C455.858 7.61 453.212 8.392 451.181 9.954C449.21 11.646 448.229 13.782 448.229 16.359C448.229 18.399 448.906 20.022 450.261 21.246C451.484 22.47 453.889 23.52 457.481 24.396C458.098 24.596 459.01 24.805 460.233 25.004C463.08 25.62 464.504 26.532 464.504 27.756C464.504 28.562 464.096 29.205 463.28 29.683C462.403 30.16 461.352 30.394 460.129 30.394C458.436 30.394 457.073 30.056 456.059 29.379C455.112 28.701 454.601 27.686 454.539 26.332H447.622ZM432.039 35.281H439.156V21.35C439.156 19.311 439.634 17.817 440.58 16.872C441.526 15.925 442.984 15.448 444.954 15.448H447.298V8.227H446.786H446.282C444.451 8.227 442.663 8.461 440.935 8.938C439.209 9.415 437.707 10.162 436.414 11.178C435.059 12.263 433.992 13.704 433.211 15.5C432.43 17.297 432.039 19.51 432.039 22.157V35.281ZM425.813 34.161C427.176 33.484 428.339 32.382 429.32 30.854C430.301 29.335 430.795 27.218 430.795 24.501V15.24C430.795 12.801 429.814 10.909 427.853 9.546C425.952 8.252 423.097 7.61 419.304 7.61C415.91 7.61 413.306 8.392 411.475 9.954C409.851 11.308 408.896 13.035 408.628 15.144H415.441C415.779 14.398 416.317 13.886 417.064 13.617C417.81 13.348 418.661 13.208 419.607 13.208C420.493 13.208 421.456 13.365 422.506 13.668C423.557 13.973 424.086 14.632 424.086 15.647C424.086 17.01 422.593 17.887 419.607 18.295C419 18.364 418.462 18.451 417.984 18.546C417.507 18.651 417.099 18.703 416.761 18.703C414.183 19.111 412.064 19.918 410.407 21.142C408.749 22.366 407.916 24.396 407.916 27.243C407.916 30.299 408.827 32.486 410.658 33.806C412.49 35.133 414.625 35.793 417.064 35.793C418.288 35.793 419.694 35.706 421.291 35.532C422.88 35.367 424.39 34.907 425.813 34.161ZM424.19 21.654C423.244 22.131 421.916 22.565 420.224 22.973C418.661 23.311 417.88 23.485 417.88 23.485C416.656 23.824 415.779 24.258 415.232 24.805C414.756 25.551 414.521 26.298 414.521 27.044C414.521 28.06 414.825 28.875 415.441 29.482C416.049 30.029 416.934 30.299 418.089 30.299C419.989 30.299 421.474 29.752 422.559 28.667C423.643 27.582 424.19 26.098 424.19 24.197V21.654ZM402.098 26.939C401.282 26.939 400.675 27.113 400.267 27.452C399.858 27.79 399.59 28.06 399.451 28.259C399.251 28.468 399.06 28.658 398.895 28.823C398.73 28.988 398.539 29.109 398.331 29.179C397.524 29.656 396.543 29.891 395.389 29.891C393.627 29.891 392.299 29.344 391.422 28.259C390.198 26.975 389.591 24.77 389.591 21.654C389.591 18.538 390.198 16.299 391.422 14.936C392.368 13.99 393.592 13.512 395.076 13.512C396.708 13.512 397.967 13.99 398.843 14.936C399.182 15.274 399.52 15.787 399.858 16.464H406.976C406.437 14.493 405.561 12.766 404.337 11.273C402.098 8.834 398.947 7.61 394.877 7.61C391.015 7.61 387.993 8.869 385.824 11.377C383.724 13.816 382.673 17.21 382.673 21.55C382.673 26.089 383.758 29.587 385.928 32.026C388.098 34.534 391.118 35.793 394.98 35.793C398.166 35.793 400.805 35.012 402.914 33.449C405.015 31.957 406.437 29.787 407.184 26.939H402.098ZM467.793 42.403H386.501C382.395 42.403 379.037 39.045 379.037 34.939V8.465C379.037 4.359 382.395 1 386.501 1H467.793C471.898 1 475.258 4.359 475.258 8.465V34.939C475.258 39.045 471.898 42.403 467.793 42.403Z" fill="#00EAB1"/>
</g>
<path fill-rule="evenodd" clip-rule="evenodd" d="M9.86441 30.05L7.57627 37H0L11.5424 5.25C12.0508 3.75 13.1695 3 14.8983 3H20.5932L33 37H25.5254L23.2373 30.05H9.86441ZM12 25H21L16.4759 10L12 25ZM48.5506 37.9995C56.8502 37.8469 61 33.3194 61 24.366C61 15.2091 57.4575 10.529 50.3219 10.2746C46.9818 10.2746 44.4514 11.6481 42.7308 14.4461V6.40838C42.7308 4.17004 41.6174 3 39.3907 3H36V25.943C36 34.0316 40.2004 38.0504 48.5506 37.9995ZM43.001 23.77C42.9521 29.2396 44.7119 32 48.4272 32C52.1424 32 54 29.2396 54 23.77C53.8533 18.5559 52.0446 16 48.5249 16C45.0053 16 43.1965 18.5559 43.001 23.77ZM75.9751 38C83.9584 38 88 33.3078 88 24.0255C88 14.6412 83.9584 10 75.9751 10C67.9917 10 64 14.6412 64 24.0255C64 33.3078 67.9917 38 75.9751 38ZM71 24.0767C71.0483 29.3419 72.7391 32 76.0242 32C79.3092 32 80.9517 29.2396 81 23.8722C81 18.607 79.3575 16 76.0725 16C72.6908 16 71 18.7093 71 24.0767ZM103.319 38C106.265 38 108.953 37.2987 111.382 35.9462C113.811 34.4935 115 31.4879 115 26.9295V11H111.485C109.211 11 108.126 12.102 108.178 14.3061V28.282C108.178 31.2375 106.627 32.6902 103.526 32.6902C100.425 32.6902 98.8742 31.2375 98.8742 28.282V11H92V26.9295C92 31.3878 93.1888 34.2931 95.5663 35.7458C97.9438 37.2486 100.476 38 103.319 38ZM128 31.7818V36.8551C125.78 37.056 123.353 37.056 120.771 36.8048C118.189 36.5537 116.95 34.9966 117.002 32.033V3H120.564C122.372 3 123.869 4.60736 123.869 6.36541V10.5847H128V12.0414C128 13.9502 126.503 15.3566 124.592 15.3566H123.869V30.074C123.869 31.1791 124.54 31.7818 125.883 31.7818H128Z" fill="#1C394D"/>
</svg>
