<svg width="237" height="33" viewBox="0 0 237 33" fill="none" xmlns="http://www.w3.org/2000/svg">
<path fill-rule="evenodd" clip-rule="evenodd" d="M4.82587 12.9398H9.47853C10.7625 12.9398 11.6652 12.6618 12.2205 12.1065C12.8112 11.6205 13.0892 10.7525 13.0892 9.53714C13.0892 8.4958 12.8112 7.66247 12.2905 7.03714C11.6312 6.4818 10.7972 6.20447 9.75587 6.20447H4.82587V12.9398ZM4.82587 17.1405V25.4731H-0.000133514V4.57247C-0.000133514 3.91247 0.242533 3.32247 0.7292 2.87114C1.18053 2.38514 1.77053 2.14247 2.42987 2.14247H10.3812C12.8459 2.14247 14.7205 2.76714 15.9359 4.0518C17.2205 5.30114 17.8452 7.17647 17.8452 9.6758C17.8452 12.0018 17.2205 13.8771 16.0052 15.2311C14.7899 16.5158 13.0192 17.1405 10.7279 17.1405H4.82587Z" fill="white"/>
<path fill-rule="evenodd" clip-rule="evenodd" d="M30.727 24.9116C29.8067 25.4032 28.8182 25.7188 27.7611 25.8247C26.7046 25.9305 25.7842 26 25 26C23.3982 26 22 25.5434 20.8073 24.6661C19.614 23.788 19 22.3125 19 20.2401C19 18.3087 19.5459 16.939 20.6365 16.1311C21.727 15.2881 23.1252 14.7264 24.7951 14.4809C25.034 14.4809 25.307 14.4458 25.6134 14.3757C25.9204 14.3049 26.2614 14.2348 26.6705 14.1997C28.6134 13.9191 29.6024 13.3216 29.6024 12.4085C29.6024 11.7416 29.2614 11.285 28.5793 11.0739C27.8632 10.8635 27.2498 10.7583 26.6705 10.7583C26.0572 10.7583 25.5112 10.8635 25 11.0389C24.5228 11.2149 24.1818 11.5656 23.9435 12.0572H19.4772C19.648 10.6524 20.2954 9.49386 21.3526 8.58075C22.5453 7.52737 24.2498 7 26.4663 7C28.9544 7 30.7951 7.42149 32.0565 8.29953C33.352 9.21264 34 10.4771 34 12.128V18.3788C34 20.205 33.659 21.6448 33.0109 22.6638C32.3635 23.6828 31.6134 24.455 30.727 24.9116ZM29.6705 16.4474C29.0225 16.7637 28.1708 17.08 27.0796 17.3612L25.5453 17.6768C24.7617 17.9229 24.1818 18.2035 23.8073 18.5899C23.4997 19.0815 23.3301 19.5732 23.3301 20.0998C23.3301 20.7668 23.5344 21.3292 23.9435 21.7507C24.3179 22.1021 24.8979 22.2774 25.6814 22.2774C26.9088 22.2774 27.8979 21.9261 28.6134 21.1883C29.3295 20.4512 29.6705 19.4679 29.6705 18.1684V16.4474Z" fill="white"/>
<path fill-rule="evenodd" clip-rule="evenodd" d="M37.6429 32.859V29.0457H38.9644C39.8929 29.0457 40.6432 28.8334 41.1788 28.4097C41.7143 27.9506 41.8213 27.2448 41.5004 26.2908L35 8H40.3572L44.1426 20.9946L47.4288 9.65984C47.6785 8.56549 48.4287 8 49.6425 8H53L45.8927 28.9046C45.3215 30.4228 44.6069 31.5171 43.786 32.1531C42.9645 32.7179 41.5717 33 39.679 33H39.1784H38.7141C38.5715 32.9647 38.3932 32.9295 38.1785 32.8942C37.9646 32.859 37.7856 32.859 37.6429 32.859Z" fill="white"/>
<path fill-rule="evenodd" clip-rule="evenodd" d="M69.8636 26H65.1357V15.0863V14.1203C65.1357 13.0113 64.821 12.1882 64.1553 11.6873C63.4902 11.1507 62.7546 10.8999 61.949 10.8999C61.1084 10.8999 60.3734 11.1507 59.7434 11.6873C59.1126 12.1882 58.7972 13.0113 58.7972 14.1203V26H54V15.0863C54 11.9017 54.8056 9.79095 56.4161 8.75276C58.0622 7.67953 59.8483 7.10719 61.8091 7C62.8595 7 63.8755 7.10719 64.8909 7.35797C65.9063 7.57234 66.8168 8.0375 67.6224 8.75276C68.2881 8.14469 69.093 7.67953 70.0385 7.42943C70.9846 7.17864 71.9301 7.03504 72.9455 7C74.9413 7 76.7972 7.53661 78.4783 8.60984C80.1594 9.68307 81 11.8302 81 15.0863V26H78.6189C77.9532 26 77.393 25.7856 76.9378 25.3205C76.5175 24.891 76.307 24.318 76.307 23.6378V14.1203C76.307 13.0113 75.9573 12.1882 75.2916 11.6873C74.6266 11.1507 73.8909 10.8999 73.0853 10.8999C72.2797 10.8999 71.5098 11.1507 70.8441 11.6873C70.179 12.1882 69.8636 13.0113 69.8636 14.1203V15.0863V26Z" fill="white"/>
<path fill-rule="evenodd" clip-rule="evenodd" d="M88.0338 11.9274C87.0756 12.9805 86.6142 14.5608 86.7206 16.6319C86.8269 18.7037 87.2173 20.1781 87.892 20.9865C88.1755 21.3721 88.6723 21.6883 89.3469 21.9337C90.0564 22.1798 90.7665 22.1798 91.4759 22.0038C92.186 21.7935 92.8245 21.2669 93.3928 20.4586C93.9251 19.6165 94.244 18.2823 94.2801 16.4566C94.2801 14.8062 94.0314 13.5772 93.4992 12.7701C92.9669 11.9625 92.3277 11.4359 91.6537 11.1899C90.9436 10.9445 90.2342 10.9445 89.5596 11.1548C88.8856 11.3658 88.3534 11.6112 88.0338 11.9274ZM84.6973 24.0048C83.7398 23.1978 83.0297 22.0746 82.6392 20.6696C82.2133 19.301 82 17.8259 82 16.3164C82 15.0873 82.1779 13.8583 82.5329 12.6299C82.888 11.4009 83.4202 10.3471 84.165 9.53945C85.3719 8.17018 86.9332 7.36318 88.8147 7.1171C90.6956 6.8717 92.3986 7.01193 93.9251 7.53847C95.6642 8.24097 96.9767 9.43428 97.8292 11.1197C98.6095 12.6299 99 14.3855 99 16.3865C99 17.8609 98.8228 19.125 98.5032 20.1781C98.1836 21.2319 97.7577 22.1096 97.2609 22.8465C96.161 24.3567 94.7408 25.2689 93.0378 25.6552C91.512 26.0766 89.9501 26.1116 88.4242 25.761C86.8977 25.4098 85.6561 24.8125 84.6973 24.0048Z" fill="white"/>
<path fill-rule="evenodd" clip-rule="evenodd" d="M116 26H113.598C112.892 26 112.327 25.7856 111.903 25.3205C111.444 24.891 111.232 24.3187 111.232 23.6385V14.1203C111.232 13.0113 110.914 12.1882 110.243 11.6873C109.572 11.1507 108.83 10.8999 108.018 10.8999C107.17 10.8999 106.428 11.1507 105.793 11.6873C105.157 12.1882 104.838 13.0113 104.838 14.1203V26H100V15.0863C100 11.9017 100.813 9.79095 102.437 8.75344C104.097 7.67953 105.899 7.10719 107.876 7C109.89 7 111.762 7.53661 113.457 8.60984C115.152 9.68376 116 11.8302 116 15.0863V26Z" fill="white"/>
<path fill-rule="evenodd" clip-rule="evenodd" d="M125 25.938C123.393 26.0447 121.673 26.0091 119.804 25.8668C117.935 25.7245 117 24.5843 117 22.4467V2H119.617C120.253 2 120.813 2.24967 121.299 2.71206C121.785 3.17515 122.009 3.70937 122.009 4.38654V7.48515H125V8.48314C125 9.16032 124.776 9.73011 124.29 10.1932C123.804 10.62 123.206 10.8341 122.533 10.8341H122.009V21.1293C122.009 21.9125 122.496 22.3044 123.467 22.3044H125V25.938Z" fill="white"/>
<path fill-rule="evenodd" clip-rule="evenodd" d="M137.45 12.6785C136.783 11.7143 135.834 11.2143 134.641 11.2143C133.34 11.2143 132.357 11.6786 131.69 12.6072C131.023 13.5357 130.671 14.8216 130.671 16.4291V26H126V2H128.318C128.986 2 129.512 2.25031 129.969 2.7146C130.426 3.17819 130.671 3.71448 130.671 4.39273V9.89279C131.479 8.49994 132.638 7.60704 134.148 7.24974C135.659 6.85747 137.099 6.96445 138.469 7.50006C139.768 8.07132 140.822 8.96422 141.7 10.1788C142.578 11.357 143 13.0358 143 15.1789V26H138.434V16.3571C138.434 15.6788 138.363 15.0362 138.258 14.4643C138.152 13.8574 137.872 13.2854 137.45 12.6785Z" fill="white"/>
<path fill-rule="evenodd" clip-rule="evenodd" d="M144 2H146.555C147.248 2 147.795 2.21397 148.27 2.67825C148.744 3.10687 149 3.64247 149 4.32141V26H144V2Z" fill="white"/>
<path fill-rule="evenodd" clip-rule="evenodd" d="M152.643 32.859V29.0457H153.965C154.893 29.0457 155.643 28.8334 156.179 28.4097C156.714 27.9506 156.822 27.2448 156.5 26.2908L150 8H155.358L159.143 20.9946L162.429 9.65984C162.679 8.56549 163.429 8 164.642 8H168L160.893 28.9046C160.321 30.4228 159.607 31.5171 158.786 32.1531C157.964 32.7179 156.572 33 154.679 33H154.179H153.714C153.571 32.9647 153.393 32.9295 153.179 32.8942C152.965 32.859 152.786 32.859 152.643 32.859Z" fill="white"/>
<mask id="mask0" mask-type="alpha" maskUnits="userSpaceOnUse" x="172" y="0" width="65" height="29">
<path fill-rule="evenodd" clip-rule="evenodd" d="M172.025 0.557068H236.502V28.4799H172.025V0.557068Z" fill="white"/>
</mask>
<g mask="url(#mask0)">
<path fill-rule="evenodd" clip-rule="evenodd" d="M217.984 17.6413V17.8463C217.984 19.8601 218.641 21.3931 219.961 22.4411C221.235 23.4953 223.166 24.022 225.754 24.022C228.482 24.022 230.524 23.5189 231.884 22.512C233.339 21.4174 234.066 19.8601 234.066 17.8463C234.066 16.4705 233.635 15.3759 232.774 14.5504C231.861 13.7722 230.25 13.0876 227.936 12.4962C227.755 12.4962 227.557 12.4726 227.353 12.426C227.15 12.3788 226.912 12.3087 226.638 12.221C224.277 11.7172 223.096 11.1028 223.096 10.3711C223.096 9.82074 223.3 9.41137 223.707 9.13621C224.161 8.86105 224.84 8.72009 225.754 8.72009C226.708 8.72009 227.458 8.92512 227.999 9.34056C228.179 9.52265 228.366 9.70947 228.546 9.89088C228.999 10.6698 229.657 11.0563 230.524 11.0563H233.455C233.361 9.22388 232.658 7.73679 231.344 6.59567C229.93 5.54223 228.046 5.01484 225.684 5.01484C223.503 5.01484 221.73 5.54223 220.369 6.59567C219.048 7.73679 218.391 9.17735 218.391 10.9153C218.391 12.2911 218.844 13.3857 219.752 14.2112C220.572 15.0367 222.183 15.7448 224.59 16.3356C225.004 16.4705 225.615 16.6115 226.435 16.7457C228.342 17.1611 229.297 17.7762 229.297 18.6017C229.297 19.1453 229.023 19.5789 228.476 19.9013C227.889 20.223 227.184 20.3808 226.365 20.3808C225.23 20.3808 224.317 20.1528 223.638 19.6963C223.003 19.239 222.661 18.5545 222.619 17.6413H217.984ZM207.542 23.6767H212.311V14.2813C212.311 12.9062 212.631 11.8986 213.265 11.2613C213.899 10.6226 214.876 10.3009 216.196 10.3009H217.767V5.43095H217.424H217.086C215.859 5.43095 214.661 5.58877 213.503 5.91047C212.346 6.23216 211.34 6.73595 210.473 7.42116C209.565 8.15291 208.85 9.12474 208.327 10.336C207.804 11.5479 207.542 13.0404 207.542 14.8256V23.6767ZM203.37 22.9213C204.283 22.4647 205.062 21.7215 205.72 20.691C206.377 19.6666 206.708 18.2388 206.708 16.4064V10.1607C206.708 8.51574 206.051 7.23974 204.737 6.32051C203.463 5.44781 201.55 5.01484 199.008 5.01484C196.734 5.01484 194.989 5.54223 193.762 6.59567C192.673 7.50884 192.033 8.67356 191.854 10.0959H196.419C196.646 9.59279 197.006 9.24749 197.507 9.06607C198.007 8.88465 198.577 8.79023 199.211 8.79023C199.805 8.79023 200.45 8.89612 201.154 9.10047C201.858 9.30616 202.212 9.75061 202.212 10.4351C202.212 11.3544 201.212 11.9458 199.211 12.221C198.804 12.2675 198.444 12.3262 198.123 12.3903C197.804 12.4611 197.53 12.4962 197.304 12.4962C195.576 12.7713 194.156 13.3156 193.046 14.1411C191.935 14.9666 191.377 16.3356 191.377 18.2557C191.377 20.3167 191.987 21.7917 193.214 22.6819C194.442 23.5769 195.872 24.022 197.507 24.022C198.327 24.022 199.269 23.9633 200.339 23.846C201.404 23.7347 202.416 23.4244 203.37 22.9213ZM202.282 14.4864C201.648 14.8081 200.758 15.1008 199.624 15.3759C198.577 15.6039 198.054 15.7212 198.054 15.7212C197.233 15.9499 196.646 16.2426 196.279 16.6115C195.96 17.1146 195.803 17.6184 195.803 18.1215C195.803 18.8067 196.007 19.3563 196.419 19.7657C196.827 20.1346 197.42 20.3167 198.194 20.3167C199.467 20.3167 200.462 19.9478 201.189 19.2161C201.915 18.4843 202.282 17.4835 202.282 16.2014V14.4864ZM187.478 18.0507C186.931 18.0507 186.525 18.168 186.251 18.3967C185.977 18.6246 185.797 18.8067 185.704 18.9409C185.57 19.0819 185.442 19.21 185.332 19.3213C185.221 19.4326 185.093 19.5142 184.954 19.5614C184.413 19.8831 183.756 20.0416 182.982 20.0416C181.802 20.0416 180.912 19.6727 180.324 18.9409C179.504 18.075 179.097 16.5879 179.097 14.4864C179.097 12.3849 179.504 10.8749 180.324 9.95563C180.958 9.31763 181.778 8.99526 182.773 8.99526C183.866 8.99526 184.71 9.31763 185.297 9.95563C185.524 10.1836 185.751 10.5296 185.977 10.9861H190.747C190.386 9.65686 189.799 8.49214 188.978 7.48523C187.478 5.84033 185.367 5.01484 182.639 5.01484C180.051 5.01484 178.026 5.86393 176.573 7.55537C175.166 9.20028 174.461 11.4893 174.461 14.4162C174.461 17.4774 175.188 19.8365 176.643 21.4814C178.097 23.1729 180.12 24.022 182.708 24.022C184.843 24.022 186.612 23.4953 188.025 22.4411C189.433 21.4349 190.386 19.9714 190.886 18.0507H187.478ZM231.501 28.4799H177.027C174.275 28.4799 172.025 26.2152 172.025 23.446V5.59147C172.025 2.8223 174.275 0.556931 177.027 0.556931H231.501C234.251 0.556931 236.503 2.8223 236.503 5.59147V23.446C236.503 26.2152 234.251 28.4799 231.501 28.4799Z" fill="#00EAB1"/>
</g>
</svg>
