<svg width="335" height="48" viewBox="0 0 335 48" fill="none" xmlns="http://www.w3.org/2000/svg">
<mask id="mask0" mask-type="alpha" maskUnits="userSpaceOnUse" x="0" y="2" width="27" height="36">
<path fill-rule="evenodd" clip-rule="evenodd" d="M0 2.3877H26.7678V37.3837H0V2.3877Z" fill="white"/>
</mask>
<g mask="url(#mask0)">
<path fill-rule="evenodd" clip-rule="evenodd" d="M7.2388 18.5837H14.2178C16.1438 18.5837 17.4978 18.1667 18.3308 17.3337C19.2168 16.6047 19.6338 15.3027 19.6338 13.4797C19.6338 11.9177 19.2168 10.6677 18.4358 9.7297C17.4468 8.8967 16.1958 8.4807 14.6338 8.4807H7.2388V18.5837ZM7.2388 24.8847V37.3837H-0.000198364V6.0327C-0.000198364 5.0427 0.363802 4.1577 1.0938 3.4807C1.7708 2.7517 2.6558 2.3877 3.6448 2.3877H15.5718C19.2688 2.3877 22.0808 3.3247 23.9038 5.2517C25.8308 7.1257 26.7678 9.9387 26.7678 13.6877C26.7678 17.1767 25.8308 19.9897 24.0078 22.0207C22.1848 23.9477 19.5288 24.8847 16.0918 24.8847H7.2388Z" fill="#1C394D"/>
</g>
<path fill-rule="evenodd" clip-rule="evenodd" d="M43.8394 36.2897C42.4334 37.0187 40.9234 37.4867 39.3084 37.6437C37.6944 37.8007 36.2884 37.9037 35.0904 37.9037C32.6434 37.9037 30.5074 37.2267 28.6854 35.9257C26.8624 34.6237 25.9244 32.4357 25.9244 29.3627C25.9244 26.4987 26.7584 24.4677 28.4244 23.2697C30.0904 22.0197 32.2264 21.1867 34.7774 20.8227C35.1424 20.8227 35.5594 20.7707 36.0274 20.6667C36.4964 20.5617 37.0174 20.4577 37.6424 20.4057C40.6104 19.9897 42.1214 19.1037 42.1214 17.7497C42.1214 16.7607 41.6004 16.0837 40.5584 15.7707C39.4644 15.4587 38.5274 15.3027 37.6424 15.3027C36.7054 15.3027 35.8714 15.4587 35.0904 15.7187C34.3614 15.9797 33.8404 16.4997 33.4764 17.2287H26.6534C26.9144 15.1457 27.9034 13.4277 29.5184 12.0737C31.3404 10.5117 33.9444 9.72974 37.3304 9.72974C41.1314 9.72974 43.9434 10.3547 45.8704 11.6567C47.8494 13.0107 48.8394 14.8857 48.8394 17.3337V26.6027C48.8394 29.3107 48.3184 31.4457 47.3284 32.9567C46.3394 34.4677 45.1934 35.6127 43.8394 36.2897ZM42.2254 23.7387C41.2354 24.2077 39.9344 24.6767 38.2674 25.0937L35.9234 25.5617C34.7264 25.9267 33.8404 26.3427 33.2684 26.9157C32.7984 27.6447 32.5394 28.3737 32.5394 29.1547C32.5394 30.1437 32.8514 30.9777 33.4764 31.6027C34.0484 32.1237 34.9344 32.3837 36.1314 32.3837C38.0064 32.3837 39.5174 31.8627 40.6104 30.7687C41.7044 29.6757 42.2254 28.2177 42.2254 26.2907V23.7387Z" fill="#1C394D"/>
<path fill-rule="evenodd" clip-rule="evenodd" d="M52.171 46.9655V41.3415H54.098C55.452 41.3415 56.546 41.0285 57.327 40.4035C58.108 39.7265 58.264 38.6855 57.796 37.2785L48.317 10.3025H56.129L61.649 29.4675L66.441 12.7505C66.805 11.1365 67.899 10.3025 69.669 10.3025H74.565L64.201 41.1335C63.368 43.3725 62.326 44.9865 61.129 45.9245C59.931 46.7575 57.9 47.1735 55.14 47.1735H54.41H53.733C53.525 47.1215 53.265 47.0695 52.952 47.0175C52.64 46.9655 52.379 46.9655 52.171 46.9655Z" fill="#1C394D"/>
<path fill-rule="evenodd" clip-rule="evenodd" d="M98.0552 37.3835H91.0242V21.4995V20.0935C91.0242 18.4795 90.5562 17.2815 89.5662 16.5525C88.5772 15.7715 87.4832 15.4065 86.2852 15.4065C85.0352 15.4065 83.9422 15.7715 83.0052 16.5525C82.0672 17.2815 81.5982 18.4795 81.5982 20.0935V37.3835H74.4642V21.4995C74.4642 16.8645 75.6622 13.7925 78.0572 12.2815C80.5052 10.7195 83.1612 9.88647 86.0772 9.73047C87.6392 9.73047 89.1502 9.88647 90.6602 10.2515C92.1702 10.5635 93.5242 11.2405 94.7222 12.2815C95.7122 11.3965 96.9092 10.7195 98.3152 10.3555C99.7222 9.99047 101.128 9.78147 102.638 9.73047C105.606 9.73047 108.366 10.5115 110.866 12.0735C113.366 13.6355 114.616 16.7605 114.616 21.4995V37.3835H111.075C110.085 37.3835 109.252 37.0715 108.575 36.3945C107.95 35.7695 107.637 34.9355 107.637 33.9455V20.0935C107.637 18.4795 107.117 17.2815 106.127 16.5525C105.138 15.7715 104.044 15.4065 102.846 15.4065C101.648 15.4065 100.503 15.7715 99.5132 16.5525C98.5242 17.2815 98.0552 18.4795 98.0552 20.0935V21.4995V37.3835Z" fill="#1C394D"/>
<path fill-rule="evenodd" clip-rule="evenodd" d="M123.984 17.0211C122.578 18.5831 121.901 20.9271 122.057 23.9991C122.213 27.0721 122.786 29.2591 123.776 30.4581C124.192 31.0301 124.921 31.4991 125.911 31.8631C126.952 32.2281 127.994 32.2281 129.035 31.9671C130.077 31.6551 131.014 30.8741 131.848 29.6751C132.629 28.4261 133.097 26.4471 133.15 23.7391C133.15 21.2911 132.785 19.4681 132.004 18.2711C131.223 17.0731 130.285 16.2921 129.296 15.9271C128.254 15.5631 127.213 15.5631 126.223 15.8751C125.234 16.1881 124.453 16.5521 123.984 17.0211ZM119.088 34.9351C117.683 33.7381 116.641 32.0721 116.068 29.9881C115.443 27.9581 115.13 25.7701 115.13 23.5311C115.13 21.7081 115.391 19.8851 115.912 18.0631C116.433 16.2401 117.214 14.6771 118.307 13.4791C120.078 11.4481 122.369 10.2511 125.13 9.8861C127.89 9.5221 130.389 9.7301 132.629 10.5111C135.181 11.5531 137.107 13.3231 138.358 15.8231C139.503 18.0631 140.076 20.6671 140.076 23.6351C140.076 25.8221 139.816 27.6971 139.347 29.2591C138.878 30.8221 138.253 32.1241 137.524 33.2171C135.91 35.4571 133.826 36.8101 131.327 37.3831C129.088 38.0081 126.796 38.0601 124.557 37.5401C122.317 37.0191 120.495 36.1331 119.088 34.9351Z" fill="#1C394D"/>
<path fill-rule="evenodd" clip-rule="evenodd" d="M164.476 37.904H160.935C159.893 37.904 159.06 37.592 158.435 36.915C157.758 36.29 157.446 35.457 157.446 34.467V20.614C157.446 19 156.977 17.802 155.988 17.073C154.998 16.292 153.905 15.927 152.707 15.927C151.457 15.927 150.363 16.292 149.426 17.073C148.489 17.802 148.019 19 148.019 20.614V37.904H140.885V22.02C140.885 17.385 142.083 14.313 144.478 12.803C146.926 11.24 149.582 10.407 152.498 10.251C155.467 10.251 158.227 11.032 160.727 12.594C163.226 14.157 164.476 17.281 164.476 22.02V37.904Z" fill="#1C394D"/>
<path fill-rule="evenodd" clip-rule="evenodd" d="M176.239 37.3834C174 37.5394 171.604 37.4874 169.001 37.2794C166.397 37.0714 165.095 35.4044 165.095 32.2795V2.38745H168.74C169.626 2.38745 170.407 2.75245 171.084 3.42845C171.76 4.10545 172.073 4.88645 172.073 5.87645V10.4065H176.239V11.8655C176.239 12.8555 175.927 13.6885 175.25 14.3655C174.573 14.9895 173.74 15.3025 172.802 15.3025H172.073V30.3535C172.073 31.4985 172.751 32.0715 174.104 32.0715H176.239V37.3834Z" fill="#1C394D"/>
<path fill-rule="evenodd" clip-rule="evenodd" d="M194.079 17.9582C193.089 16.5522 191.683 15.8232 189.913 15.8232C187.985 15.8232 186.527 16.5002 185.538 17.8542C184.549 19.2082 184.027 21.0832 184.027 23.4272V37.3832H177.101V2.38721H180.538C181.528 2.38721 182.309 2.75221 182.986 3.42921C183.663 4.10521 184.027 4.88721 184.027 5.87621V13.8962C185.225 11.8652 186.944 10.5632 189.183 10.0422C191.423 9.47021 193.558 9.62621 195.589 10.4072C197.516 11.2402 199.078 12.5422 200.38 14.3132C201.683 16.0312 202.308 18.4792 202.308 21.6042V37.3832H195.537V23.3222C195.537 22.3332 195.433 21.3962 195.276 20.5622C195.12 19.6772 194.704 18.8432 194.079 17.9582Z" fill="#1C394D"/>
<path fill-rule="evenodd" clip-rule="evenodd" d="M203.039 2.90845H206.685C207.674 2.90845 208.455 3.22045 209.132 3.89745C209.809 4.52245 210.174 5.30345 210.174 6.29345V37.9044H203.039V2.90845Z" fill="#1C394D"/>
<path fill-rule="evenodd" clip-rule="evenodd" d="M214.932 46.9655V41.3415H216.86C218.213 41.3415 219.307 41.0285 220.088 40.4035C220.869 39.7265 221.026 38.6855 220.557 37.2785L211.078 10.3025H218.891L224.411 29.4675L229.202 12.7505C229.567 11.1365 230.66 10.3025 232.43 10.3025H237.326L226.962 41.1335C226.129 43.3725 225.087 44.9865 223.89 45.9245C222.692 46.7575 220.661 47.1735 217.901 47.1735H217.172H216.494C216.286 47.1215 216.026 47.0695 215.713 47.0175C215.402 46.9655 215.141 46.9655 214.932 46.9655Z" fill="#1C394D"/>
<mask id="mask1" mask-type="alpha" maskUnits="userSpaceOnUse" x="238" y="0" width="97" height="42">
<path fill-rule="evenodd" clip-rule="evenodd" d="M238.037 0H334.257V41.4028H238.037V0Z" fill="white"/>
</mask>
<g mask="url(#mask1)">
<path fill-rule="evenodd" clip-rule="evenodd" d="M306.622 25.3318V25.6358C306.622 28.6218 307.602 30.8948 309.572 32.4488C311.474 34.0118 314.355 34.7928 318.218 34.7928C322.288 34.7928 325.335 34.0468 327.366 32.5538C329.536 30.9308 330.621 28.6218 330.621 25.6358C330.621 23.5958 329.978 21.9728 328.693 20.7488C327.331 19.5948 324.927 18.5798 321.473 17.7028C321.203 17.7028 320.908 17.6678 320.604 17.5988C320.301 17.5288 319.945 17.4248 319.537 17.2948C316.013 16.5478 314.251 15.6368 314.251 14.5518C314.251 13.7358 314.555 13.1288 315.162 12.7208C315.84 12.3128 316.854 12.1038 318.218 12.1038C319.641 12.1038 320.761 12.4078 321.568 13.0238C321.837 13.2938 322.115 13.5708 322.384 13.8398C323.06 14.9948 324.042 15.5678 325.335 15.5678H329.709C329.57 12.8508 328.52 10.6458 326.559 8.95376C324.449 7.39176 321.638 6.60976 318.113 6.60976C314.858 6.60976 312.212 7.39176 310.181 8.95376C308.21 10.6458 307.229 12.7818 307.229 15.3588C307.229 17.3988 307.906 19.0218 309.261 20.2458C310.484 21.4698 312.889 22.5198 316.481 23.3958C317.098 23.5958 318.01 23.8048 319.233 24.0038C322.08 24.6198 323.504 25.5318 323.504 26.7558C323.504 27.5618 323.096 28.2048 322.28 28.6828C321.403 29.1598 320.352 29.3938 319.129 29.3938C317.436 29.3938 316.073 29.0558 315.059 28.3788C314.112 27.7008 313.601 26.6858 313.539 25.3318H306.622ZM291.039 34.2808H298.156V20.3498C298.156 18.3108 298.634 16.8168 299.58 15.8718C300.526 14.9248 301.984 14.4478 303.954 14.4478H306.298V7.22676H305.786H305.282C303.451 7.22676 301.663 7.46076 299.935 7.93776C298.209 8.41476 296.707 9.16176 295.414 10.1778C294.059 11.2628 292.992 12.7038 292.211 14.4998C291.43 16.2968 291.039 18.5098 291.039 21.1568V34.2808ZM284.813 33.1608C286.176 32.4838 287.339 31.3818 288.32 29.8538C289.301 28.3348 289.795 26.2178 289.795 23.5008V14.2398C289.795 11.8008 288.814 9.90876 286.853 8.54576C284.952 7.25176 282.097 6.60976 278.304 6.60976C274.91 6.60976 272.306 7.39176 270.475 8.95376C268.851 10.3078 267.896 12.0348 267.628 14.1438H274.441C274.779 13.3978 275.317 12.8858 276.064 12.6168C276.81 12.3478 277.661 12.2078 278.607 12.2078C279.493 12.2078 280.456 12.3648 281.506 12.6678C282.557 12.9728 283.086 13.6318 283.086 14.6468C283.086 16.0098 281.593 16.8868 278.607 17.2948C278 17.3638 277.462 17.4508 276.984 17.5458C276.507 17.6508 276.099 17.7028 275.761 17.7028C273.183 18.1108 271.064 18.9178 269.407 20.1418C267.749 21.3658 266.916 23.3958 266.916 26.2428C266.916 29.2988 267.827 31.4858 269.658 32.8058C271.49 34.1328 273.625 34.7928 276.064 34.7928C277.288 34.7928 278.694 34.7058 280.291 34.5318C281.88 34.3668 283.39 33.9068 284.813 33.1608ZM283.19 20.6538C282.244 21.1308 280.916 21.5648 279.224 21.9728C277.661 22.3108 276.88 22.4848 276.88 22.4848C275.656 22.8238 274.779 23.2578 274.232 23.8048C273.756 24.5508 273.521 25.2978 273.521 26.0438C273.521 27.0598 273.825 27.8748 274.441 28.4818C275.049 29.0288 275.934 29.2988 277.089 29.2988C278.989 29.2988 280.474 28.7518 281.559 27.6668C282.643 26.5818 283.19 25.0978 283.19 23.1968V20.6538ZM261.098 25.9388C260.282 25.9388 259.675 26.1128 259.267 26.4518C258.858 26.7898 258.59 27.0598 258.451 27.2588C258.251 27.4678 258.06 27.6578 257.895 27.8228C257.73 27.9878 257.539 28.1088 257.331 28.1788C256.524 28.6558 255.543 28.8908 254.389 28.8908C252.627 28.8908 251.299 28.3438 250.422 27.2588C249.198 25.9748 248.591 23.7698 248.591 20.6538C248.591 17.5378 249.198 15.2988 250.422 13.9358C251.368 12.9898 252.592 12.5118 254.076 12.5118C255.708 12.5118 256.967 12.9898 257.843 13.9358C258.182 14.2738 258.52 14.7868 258.858 15.4638H265.976C265.437 13.4928 264.561 11.7658 263.337 10.2728C261.098 7.83376 257.947 6.60976 253.877 6.60976C250.015 6.60976 246.993 7.86876 244.824 10.3768C242.724 12.8158 241.673 16.2098 241.673 20.5498C241.673 25.0888 242.758 28.5868 244.928 31.0258C247.098 33.5338 250.118 34.7928 253.98 34.7928C257.166 34.7928 259.805 34.0118 261.914 32.4488C264.015 30.9568 265.437 28.7868 266.184 25.9388H261.098ZM326.793 41.4028H245.501C241.395 41.4028 238.037 38.0448 238.037 33.9388V7.46476C238.037 3.35876 241.395 -0.000244141 245.501 -0.000244141H326.793C330.898 -0.000244141 334.258 3.35876 334.258 7.46476V33.9388C334.258 38.0448 330.898 41.4028 326.793 41.4028Z" fill="#00EAB1"/>
</g>
</svg>
